<svg width="24" height="24" viewBox="0 0 24 24" fill="none" xmlns="http://www.w3.org/2000/svg">
<mask id="mask0_3594_13449" style="mask-type:alpha" maskUnits="userSpaceOnUse" x="3" y="1" width="18" height="22">
<path fill-rule="evenodd" clip-rule="evenodd" d="M19 6.49023H17C17 3.73023 14.76 1.49023 12 1.49023C9.24 1.49023 7 3.73023 7 6.49023H5C3.9 6.49023 3 7.39023 3 8.49023V20.4902C3 21.5902 3.9 22.4902 5 22.4902H19C20.1 22.4902 21 21.5902 21 20.4902V8.49023C21 7.39023 20.1 6.49023 19 6.49023ZM12 3.49023C13.66 3.49023 15 4.83023 15 6.49023H9C9 4.83023 10.34 3.49023 12 3.49023ZM7.16 9.74023C7.71 11.9002 9.67 13.4902 12 13.4902C14.33 13.4902 16.29 11.9002 16.84 9.74023C17 9.11023 16.52 8.49023 15.87 8.49023C15.4 8.49023 15.02 8.83023 14.89 9.29023C14.54 10.5602 13.38 11.4902 12 11.4902C10.62 11.4902 9.46 10.5602 9.11 9.29023C8.98 8.83023 8.6 8.49023 8.13 8.49023C7.48 8.49023 6.99 9.11023 7.16 9.74023Z" fill="black"/>
</mask>
<g mask="url(#mask0_3594_13449)">
<rect y="-0.00976562" width="24" height="24" fill="#F2663B"/>
</g>
</svg>
