<svg width="48" height="40" viewBox="0 0 48 40" fill="none" xmlns="http://www.w3.org/2000/svg">
<mask id="mask0_3800_33705" style="mask-type:alpha" maskUnits="userSpaceOnUse" x="13" y="10" width="22" height="20">
<path fill-rule="evenodd" clip-rule="evenodd" d="M34 17.5066H29.21L24.82 10.9366C24.42 10.3466 23.55 10.3466 23.16 10.9366L18.77 17.5066H14C13.45 17.5066 13 17.9566 13 18.5066C13 18.5966 13.01 18.6866 13.04 18.7766L15.58 28.0466C15.81 28.8866 16.58 29.5066 17.5 29.5066H30.5C31.42 29.5066 32.19 28.8866 32.43 28.0466L34.97 18.7766L35 18.5066C35 17.9566 34.55 17.5066 34 17.5066ZM23.99 13.2966L26.8 17.5066H21.18L23.99 13.2966ZM22 23.5066C22 24.6066 22.9 25.5066 24 25.5066C25.1 25.5066 26 24.6066 26 23.5066C26 22.4066 25.1 21.5066 24 21.5066C22.9 21.5066 22 22.4066 22 23.5066Z" fill="black"/>
</mask>
<g mask="url(#mask0_3800_33705)">
<rect x="12" y="8" width="24" height="24" fill="black"/>
</g>
</svg>
