<svg width="48" height="40" viewBox="0 0 48 40" fill="none" xmlns="http://www.w3.org/2000/svg">
<mask id="mask0_3800_33714" style="mask-type:alpha" maskUnits="userSpaceOnUse" x="13" y="11" width="22" height="18">
<path fill-rule="evenodd" clip-rule="evenodd" d="M24.0002 13.2674C25.7602 11.2074 29.0202 10.3674 31.6602 12.1674C33.0602 13.1274 33.9402 14.7474 34.0002 16.4474C34.1302 20.3274 30.7002 23.4374 25.4502 28.1974L25.3402 28.2974C24.5802 28.9974 23.4102 28.9974 22.6502 28.3074L22.5502 28.2174L22.4898 28.1625C17.2738 23.4235 13.8608 20.3225 14.0002 16.4574C14.0602 14.7474 14.9402 13.1274 16.3402 12.1674C18.9802 10.3574 22.2402 11.2074 24.0002 13.2674ZM24.0002 26.8274L24.1002 26.7274C28.8602 22.4174 32.0002 19.5674 32.0002 16.6774C32.0002 14.6774 30.5002 13.1774 28.5002 13.1774C26.9602 13.1774 25.4602 14.1674 24.9402 15.5374H23.0702C22.5402 14.1674 21.0402 13.1774 19.5002 13.1774C17.5002 13.1774 16.0002 14.6774 16.0002 16.6774C16.0002 19.5674 19.1402 22.4174 23.9002 26.7274L24.0002 26.8274Z" fill="black"/>
</mask>
<g mask="url(#mask0_3800_33714)">
<rect x="12" y="8" width="24" height="24" fill="black"/>
</g>
</svg>
